<svg id="Group_1361" data-name="Group 1361" xmlns="http://www.w3.org/2000/svg" width="28.774" height="23.542" viewBox="0 0 28.774 23.542">
  <path id="Path_1758" data-name="Path 1758" d="M21.421,92.982l3.524-13.621H28.8V77.22H23.261l-.831,3.211L0,80.415,2.385,92.982H21.421Zm.455-10.411-2.14,8.27H4.185L2.614,82.558Z" transform="translate(0 -77.22)" fill="#fff"/>
  <path id="Path_1759" data-name="Path 1759" d="M76.512,615a3.424,3.424,0,1,0,0-6.848H63.442a3.424,3.424,0,1,0,3.469,3.424,3.367,3.367,0,0,0-.253-1.283H73.3a3.367,3.367,0,0,0-.253,1.283A3.451,3.451,0,0,0,76.512,615Zm-11.77-3.424a1.3,1.3,0,1,1-1.3-1.283A1.293,1.293,0,0,1,64.742,611.579Zm13.07,0a1.3,1.3,0,1,1-1.3-1.283A1.293,1.293,0,0,1,77.811,611.579Z" transform="translate(-58.06 -591.438)" fill="#fff"/>
</svg>
