<svg id="_004-rate" data-name="004-rate" xmlns="http://www.w3.org/2000/svg" width="23.499" height="23.499" viewBox="0 0 23.499 23.499">
  <g id="Group_1347" data-name="Group 1347">
    <path id="Path_1752" data-name="Path 1752" d="M22.581,0H.918A.918.918,0,0,0,0,.918V18.91a.918.918,0,0,0,.918.918H7.7l3.4,3.4a.918.918,0,0,0,1.3,0l3.4-3.4h6.78a.918.918,0,0,0,.918-.918V.918A.918.918,0,0,0,22.581,0Zm-.918,17.992H15.421a.918.918,0,0,0-.649.269L11.75,21.283,8.727,18.261a.918.918,0,0,0-.649-.269H1.836V1.836H21.664ZM8.254,11.554l-.511,2.978a.919.919,0,0,0,1.332.968l2.675-1.406L14.424,15.5a.919.919,0,0,0,1.332-.968l-.511-2.978,2.164-2.109A.919.919,0,0,0,16.9,7.879l-2.99-.435-1.337-2.71a.919.919,0,0,0-1.646,0L9.589,7.444,6.6,7.879A.919.919,0,0,0,6.09,9.444Zm2.077-2.362a.918.918,0,0,0,.691-.5l.728-1.475.728,1.475a.918.918,0,0,0,.691.5l1.627.236-1.178,1.148a.918.918,0,0,0-.264.813l.278,1.621-1.456-.765a.918.918,0,0,0-.854,0l-1.456.765.278-1.621a.918.918,0,0,0-.264-.813L8.7,9.428Z" fill="#111"/>
  </g>
</svg>
