<svg xmlns="http://www.w3.org/2000/svg" width="38.074" height="38.074" viewBox="0 0 38.074 38.074">
  <path id="Path_1779" data-name="Path 1779" d="M36.586,0H1.487A1.487,1.487,0,0,0,0,1.487v29.15a1.487,1.487,0,0,0,1.487,1.487H12.472l5.513,5.513a1.487,1.487,0,0,0,2.1,0L25.6,32.125H36.586a1.487,1.487,0,0,0,1.487-1.487V1.487A1.487,1.487,0,0,0,36.586,0ZM35.1,29.15H24.986a1.487,1.487,0,0,0-1.052.436l-4.9,4.9-4.9-4.9a1.487,1.487,0,0,0-1.052-.436H2.975V2.975H35.1ZM13.373,18.719l-.828,4.826A1.488,1.488,0,0,0,14.7,25.112l4.334-2.278,4.334,2.278a1.488,1.488,0,0,0,2.158-1.568L24.7,18.719,28.207,15.3a1.488,1.488,0,0,0-.824-2.537l-4.845-.7L20.37,7.67a1.488,1.488,0,0,0-2.667,0l-2.167,4.39-4.845.7A1.488,1.488,0,0,0,9.867,15.3Zm3.365-3.827a1.487,1.487,0,0,0,1.12-.814l1.179-2.389,1.179,2.389a1.487,1.487,0,0,0,1.12.814l2.637.383-1.908,1.86a1.487,1.487,0,0,0-.428,1.316l.45,2.626-2.358-1.24a1.487,1.487,0,0,0-1.384,0l-2.358,1.24.45-2.626a1.487,1.487,0,0,0-.428-1.316L14.1,15.275Z" fill="#707070"/>
</svg>
