<svg xmlns="http://www.w3.org/2000/svg" width="29.998" height="24.867" viewBox="0 0 29.998 24.867">
  <g id="shopping-cart-outline" transform="translate(0 -77.158)">
    <g id="Group_1358" data-name="Group 1358" transform="translate(0 77.158)">
      <g id="Group_1357" data-name="Group 1357" transform="translate(0 0)">
        <path id="Path_1758" data-name="Path 1758" d="M22.333,93.869l3.674-14.387h4.02V77.22H24.251l-.866,3.392L0,80.595,2.486,93.869H22.333Zm.474-11-2.231,8.735H4.363L2.725,82.858l20.082.014Z" transform="translate(0 -77.22)" fill="#111"/>
        <path id="Path_1759" data-name="Path 1759" d="M77.215,615.388a3.617,3.617,0,1,0,0-7.233H63.59a3.617,3.617,0,1,0,3.353,2.261h6.92a3.616,3.616,0,0,0,3.353,4.972Zm-12.271-3.617a1.355,1.355,0,1,1-1.355-1.355A1.357,1.357,0,0,1,64.945,611.771Zm13.626,0a1.355,1.355,0,1,1-1.355-1.355A1.357,1.357,0,0,1,78.57,611.771Z" transform="translate(-57.978 -590.497)" fill="#111"/>
      </g>
    </g>
  </g>
</svg>
