<svg xmlns="http://www.w3.org/2000/svg" width="21.415" height="21.415" viewBox="0 0 21.415 21.415">
  <g id="Group_1239" data-name="Group 1239" transform="translate(0.999 1)">
    <path id="Union_17" data-name="Union 17" d="M11620.76-3565.828a8.46,8.46,0,0,1-5.261,1.827,8.507,8.507,0,0,1-8.5-8.5,8.509,8.509,0,0,1,8.5-8.5,8.512,8.512,0,0,1,8.5,8.5,8.455,8.455,0,0,1-1.827,5.258l6.243,6.24-1.416,1.416ZM11609-3572.5a6.506,6.506,0,0,0,6.5,6.5,6.509,6.509,0,0,0,6.5-6.5,6.509,6.509,0,0,0-6.5-6.5A6.507,6.507,0,0,0,11609-3572.5Z" transform="translate(-11608 3580)" fill="#f7f7f7"/>
  </g>
</svg>
