<svg xmlns="http://www.w3.org/2000/svg" width="25.202" height="25.201" viewBox="0 0 25.202 25.201">
  <path id="Path_1783" data-name="Path 1783" d="M21.705,3.888A12.6,12.6,0,1,0,3.877,21.677c.007.007.01.018.017.024.073.07.152.13.226.2.2.18.4.366.618.54q.172.136.35.263c.2.15.4.3.614.439.143.09.291.18.437.27.194.117.388.235.588.342.17.09.344.167.516.249.189.09.375.18.569.261s.388.144.584.214.365.135.553.193c.212.064.43.113.646.166.18.044.354.094.54.13.248.05.5.081.752.115.156.022.308.052.465.067.412.04.828.063,1.247.063s.835-.023,1.247-.063c.157-.015.31-.046.465-.067.252-.034.5-.066.752-.115.18-.036.36-.09.54-.13.216-.053.434-.1.646-.166.188-.058.37-.128.553-.193s.392-.135.584-.214.38-.172.569-.261c.173-.082.346-.159.516-.249.2-.107.394-.225.588-.342.147-.09.294-.172.437-.27.211-.139.412-.289.614-.439.117-.09.236-.171.35-.263.213-.171.416-.353.618-.54.074-.067.153-.127.226-.2.007-.006.01-.017.017-.024a12.581,12.581,0,0,0,.381-17.789ZM19.683,20.735c-.164.144-.333.281-.5.413-.1.077-.2.154-.305.228q-.243.176-.5.337-.184.117-.373.228-.24.136-.482.27c-.144.074-.291.143-.438.211s-.31.141-.47.205-.328.124-.495.18-.3.106-.458.152c-.18.054-.368.1-.554.143-.146.034-.29.073-.437.1-.213.041-.431.07-.65.1-.124.016-.247.039-.373.051-.346.033-.7.053-1.049.053s-.7-.02-1.049-.053c-.125-.013-.248-.035-.373-.051-.219-.03-.436-.058-.65-.1-.148-.029-.292-.067-.437-.1-.186-.045-.372-.09-.554-.143-.154-.046-.306-.1-.458-.152s-.333-.116-.495-.18-.315-.134-.47-.205-.294-.138-.438-.211q-.246-.127-.482-.27-.189-.11-.373-.228-.253-.161-.5-.337c-.1-.074-.2-.15-.305-.228q-.258-.2-.5-.413c-.04-.03-.076-.067-.114-.1a7.219,7.219,0,0,1,4.906-6.744,5.335,5.335,0,0,0,4.583,0A7.219,7.219,0,0,1,19.8,20.633C19.757,20.667,19.721,20.7,19.683,20.735ZM9.459,7.225a3.6,3.6,0,1,1,4.9,4.9.019.019,0,0,0-.015.005,3.812,3.812,0,0,1-.752.319c-.047.013-.09.031-.139.043-.09.023-.184.04-.277.056a3.645,3.645,0,0,1-.528.053h-.1a3.644,3.644,0,0,1-.528-.053c-.09-.016-.185-.032-.277-.056-.048-.012-.09-.03-.139-.043a3.809,3.809,0,0,1-.752-.319l-.016-.005a3.6,3.6,0,0,1-1.373-4.9ZM21.391,18.849a9.042,9.042,0,0,0-4.817-6.2,5.4,5.4,0,1,0-7.954,0,9.043,9.043,0,0,0-4.817,6.2,10.8,10.8,0,1,1,17.589,0Z" transform="translate(0 -0.011)" fill="#07a9f9"/>
</svg>
